<svg width="80" height="80" viewBox="0 0 80 80" fill="none" xmlns="http://www.w3.org/2000/svg">
<path d="M40 80C62.0914 80 80 62.0914 80 40C80 17.9086 62.0914 0 40 0C17.9086 0 0 17.9086 0 40C0 62.0914 17.9086 80 40 80Z" fill="#19513C"/>
<path fill-rule="evenodd" clip-rule="evenodd" d="M64 42.626C64 46.156 62.03 50.608 57.722 52.438C53.622 58.986 47.772 64 40 64C32.502 64 26.284 58.836 22.276 52.438C17.97 50.606 16 46.154 16 42.626C16 38.636 17.622 35.078 21.366 34.708L21.426 34.652L21.432 34.612C20.932 30.722 20.756 24.772 22.87 22.518C24.006 21.308 25.304 20.84 26.964 21.388C29.552 17.858 33.872 16 39.708 16C48.9673 16 52.7851 20.8 56.0277 24.8768L56.062 24.92C57.848 27.166 60 29.416 64 29.292C62.382 30.808 60.442 32 58.336 32.882C58.438 33.484 58.522 34.09 58.58 34.696C62.28 35.026 64 38.506 64 42.626ZM33.5 38C32.12 38 31 39.344 31 41C31 42.656 32.12 44 33.5 44C34.88 44 36 42.656 36 41C36 39.344 34.88 38 33.5 38ZM49 41C49 42.656 47.88 44 46.5 44C45.12 44 44 42.656 44 41C44 39.344 45.12 38 46.5 38C47.88 38 49 39.344 49 41ZM35.8762 49.184C36.8769 48.2009 37.7542 47.3391 40 48.714C42.2455 47.3402 43.1229 48.2022 44.1234 49.1852C45.2393 50.2815 46.5085 51.5284 50 49.992C49 54.016 42.988 54.698 40 52.274C37.012 54.698 31 54.016 30 49.992C33.4911 51.5272 34.7604 50.2803 35.8762 49.184ZM57.498 38.788C57.78 38.662 58.37 38.588 58.84 38.894C60.84 40.19 60.63 47.26 55.734 48.918C55.288 49.07 54.908 49.374 54.662 49.778C51.248 55.432 46.636 60 40 60C33.368 60 28.754 55.436 25.338 49.778C25.094 49.374 24.716 49.07 24.268 48.918C19.374 47.262 19.16 40.196 21.16 38.894C21.632 38.588 22.222 38.664 22.504 38.788C23.714 39.326 25.11 38.574 25.284 37.208H25.292C26.05 31.878 29 27.916 33.75 27.166C37 33.638 46.288 35.956 54.486 34.1C54.616 35.046 54.686 36.002 54.686 36.96C54.686 38.404 56.178 39.374 57.498 38.788Z" fill="white"/>
</svg>
