<svg width="32" height="32" viewBox="0 0 32 32" fill="none" xmlns="http://www.w3.org/2000/svg">
<path fill-rule="evenodd" clip-rule="evenodd" d="M16 0C7.164 0 0 7.164 0 16C0 24.836 7.164 32 16 32C24.836 32 32 24.836 32 16C32 7.164 24.836 0 16 0ZM15.9993 2.6665C23.3513 2.6665 29.3327 8.64784 29.3327 15.9998C29.3327 23.3518 23.3513 29.3332 15.9993 29.3332C8.64735 29.3332 2.66602 23.3518 2.66602 15.9998C2.66602 8.64784 8.64735 2.6665 15.9993 2.6665ZM10.666 13.3333H13.3327V11.0773C13.3327 9.056 14.3967 8 16.794 8H19.9993V11.3333H18.0767C17.4607 11.3333 17.3327 11.5853 17.3327 12.2227V13.3333H19.9993L19.7593 16H17.3327V24H13.3327V16H10.666V13.3333Z" fill="white"/>
</svg>
