<svg width="32" height="32" viewBox="0 0 32 32" fill="none" xmlns="http://www.w3.org/2000/svg">
<path fill-rule="evenodd" clip-rule="evenodd" d="M16 0C7.164 0 0 7.164 0 16C0 24.836 7.164 32 16 32C24.836 32 32 24.836 32 16C32 7.164 24.836 0 16 0ZM15.9993 2.6665C23.3513 2.6665 29.3327 8.64784 29.3327 15.9998C29.3327 23.3518 23.3513 29.3332 15.9993 29.3332C8.64735 29.3332 2.66602 23.3518 2.66602 15.9998C2.66602 8.64784 8.64735 2.6665 15.9993 2.6665ZM19.2333 9.48933C18.3893 9.45067 18.136 9.44267 16 9.44267C13.864 9.44267 13.6107 9.44933 12.768 9.488C10.5973 9.58667 9.58667 10.6147 9.488 12.768C9.45067 13.6107 9.44133 13.864 9.44133 16C9.44133 18.136 9.45067 18.3893 9.488 19.232C9.588 21.38 10.5947 22.412 12.768 22.512C13.6107 22.5507 13.864 22.5587 16 22.5587C18.1373 22.5587 18.3893 22.5493 19.2333 22.512C21.404 22.4133 22.4133 21.3827 22.5133 19.232C22.5507 18.3893 22.5587 18.136 22.5587 16C22.5587 13.864 22.5507 13.612 22.5133 12.768C22.4133 10.616 21.4027 9.588 19.2333 9.48933ZM16 8C13.8267 8 13.556 8.00933 12.7013 8.04933C9.79467 8.18267 8.18133 9.79467 8.048 12.7013C8.00933 13.556 8 13.828 8 16C8 18.1733 8.00933 18.4453 8.048 19.2987C8.18133 22.204 9.79467 23.8187 12.7013 23.952C13.556 23.9907 13.8267 24 16 24C18.1733 24 18.4453 23.9907 19.3 23.952C22.2013 23.8187 23.8213 22.2067 23.952 19.2987C23.9907 18.4453 24 18.1733 24 16C24 13.828 23.9907 13.556 23.952 12.7013C23.8213 9.79867 22.2067 8.18133 19.3 8.04933C18.4453 8.00933 18.1733 8 16 8ZM11.8916 16.0001C11.8916 13.7308 13.7316 11.8921 15.9996 11.8921C18.2676 11.8921 20.1076 13.7321 20.1076 16.0001C20.1076 18.2694 18.2676 20.1081 15.9996 20.1081C13.7316 20.1081 11.8916 18.2694 11.8916 16.0001ZM16.0007 18.6668C14.5273 18.6668 13.334 17.4735 13.334 16.0002C13.334 14.5282 14.5273 13.3335 16.0007 13.3335C17.4727 13.3335 18.6687 14.5268 18.6687 16.0002C18.6687 17.4735 17.4727 18.6668 16.0007 18.6668ZM19.3096 11.7305C19.3096 11.1998 19.7402 10.7705 20.2696 10.7705C20.8016 10.7705 21.2309 11.1998 21.2309 11.7305C21.2309 12.2612 20.8002 12.6905 20.2696 12.6905C19.7389 12.6905 19.3096 12.2598 19.3096 11.7305Z" fill="white"/>
</svg>
