<svg width="200" height="74" viewBox="0 0 200 74" fill="none" xmlns="http://www.w3.org/2000/svg">
<g clip-path="url(#clip0_5_411)">
<path d="M83.4767 22.2788H94.9881V25.2703H86.7657V28.4192H93.9701V31.4107H86.7657V34.6384H95.0664V37.6299H83.3984V22.2788H83.4767Z" fill="white"/>
<path d="M98.1201 22.2788H101.487V34.6384H109.083V37.7086H98.1201V22.2788Z" fill="white"/>
<path d="M118.246 22.2788H125.216C127.173 22.2788 128.661 22.8299 129.679 23.8533C130.541 24.7192 131.01 25.9001 131.01 27.3958V27.4746C131.01 28.7341 130.697 29.7575 130.071 30.5448C129.444 31.332 128.661 31.8831 127.721 32.2767L131.48 37.7873H127.565L124.276 32.8277H124.198H121.613V37.7873H118.246V22.2788ZM124.981 29.7575C125.842 29.7575 126.468 29.5214 126.86 29.1277C127.33 28.7341 127.565 28.1831 127.565 27.5533C127.565 26.8448 127.33 26.2937 126.86 25.9001C126.39 25.5065 125.764 25.349 124.902 25.349H121.535V29.7575H124.981Z" fill="white"/>
<path d="M141.504 37.9447C140.329 37.9447 139.233 37.7086 138.215 37.3149C137.197 36.9213 136.335 36.3703 135.631 35.583C134.926 34.8745 134.378 34.0085 133.908 33.0639C133.516 32.1192 133.281 31.0958 133.281 29.9937V29.9149C133.281 28.8128 133.516 27.7894 133.908 26.8447C134.299 25.9 134.847 25.0341 135.631 24.3256C136.335 23.6171 137.197 23.066 138.215 22.5937C139.233 22.2 140.329 21.9639 141.504 21.9639C142.678 21.9639 143.775 22.2 144.793 22.5937C145.811 22.9873 146.672 23.5383 147.377 24.3256C148.082 25.0341 148.63 25.9 149.1 26.8447C149.491 27.7894 149.726 28.8128 149.726 29.9149V29.9937C149.726 31.0958 149.491 32.1192 149.1 33.0639C148.708 34.0085 148.16 34.8745 147.377 35.583C146.672 36.2915 145.811 36.8426 144.793 37.3149C143.775 37.7086 142.678 37.9447 141.504 37.9447ZM141.504 34.7958C142.208 34.7958 142.757 34.6383 143.383 34.4022C143.931 34.166 144.401 33.7724 144.871 33.3788C145.262 32.9064 145.576 32.4341 145.811 31.883C146.046 31.332 146.124 30.7022 146.124 29.9937V29.9149C146.124 29.2851 146.046 28.6554 145.811 28.0256C145.576 27.4745 145.262 26.9234 144.871 26.4511C144.479 25.9788 143.931 25.6639 143.383 25.4277C142.835 25.1915 142.208 25.0341 141.504 25.0341C140.799 25.0341 140.172 25.1915 139.624 25.4277C139.076 25.6639 138.606 26.0575 138.215 26.4511C137.823 26.9234 137.51 27.3958 137.275 27.9468C137.04 28.4979 136.962 29.1277 136.962 29.8362V29.9149C136.962 30.5447 137.04 31.1745 137.275 31.8043C137.51 32.3554 137.823 32.9064 138.215 33.3788C138.606 33.8511 139.154 34.166 139.703 34.4022C140.251 34.6383 140.877 34.7958 141.504 34.7958Z" fill="white"/>
<path d="M152.623 22.2788H158.574C159.749 22.2788 160.845 22.4363 161.863 22.8299C162.881 23.2235 163.743 23.7746 164.448 24.4831C165.152 25.1916 165.701 25.9788 166.092 26.9235C166.484 27.8682 166.719 28.8916 166.719 29.915V29.9937C166.719 31.0958 166.484 32.1192 166.092 33.0639C165.701 34.0086 165.152 34.7958 164.448 35.5043C163.743 36.2129 162.881 36.7639 161.863 37.1575C160.845 37.5512 159.749 37.7873 158.574 37.7873H152.623V22.2788ZM158.574 34.6384C159.279 34.6384 159.906 34.5597 160.454 34.3235C161.002 34.0873 161.472 33.7724 161.942 33.3788C162.333 32.9852 162.647 32.5129 162.881 31.9618C163.116 31.4107 163.195 30.7809 163.195 30.0724V29.9937C163.195 29.2852 163.116 28.7341 162.881 28.1043C162.647 27.5533 162.333 27.0809 161.942 26.6086C161.55 26.215 161.08 25.9001 160.454 25.6639C159.906 25.4277 159.279 25.349 158.574 25.349H155.99V34.6384H158.574Z" fill="white"/>
<path d="M169.773 22.2788H181.284V25.2703H173.062V28.4192H180.266V31.4107H173.062V34.6384H181.362V37.6299H169.694V22.2788H169.773Z" fill="white"/>
<path d="M191.856 37.9447C190.682 37.9447 189.585 37.7086 188.567 37.3149C187.549 36.9213 186.688 36.3703 185.983 35.583C185.278 34.8745 184.73 34.0085 184.26 33.0639C183.869 32.1192 183.634 31.0958 183.634 29.9937V29.9149C183.634 28.8128 183.869 27.7894 184.26 26.8447C184.652 25.9 185.2 25.0341 185.983 24.3256C186.688 23.6171 187.549 23.066 188.567 22.5937C189.585 22.2 190.682 21.9639 191.856 21.9639C193.031 21.9639 194.127 22.2 195.145 22.5937C196.163 22.9873 197.025 23.5383 197.729 24.3256C198.434 25.0341 198.982 25.9 199.452 26.8447C199.844 27.7894 200.079 28.8128 200.079 29.9149V29.9937C200.079 31.0958 199.844 32.1192 199.452 33.0639C199.061 34.0085 198.512 34.8745 197.729 35.583C197.025 36.2915 196.163 36.8426 195.145 37.3149C194.127 37.7086 193.031 37.9447 191.856 37.9447ZM191.856 34.7958C192.561 34.7958 193.109 34.6383 193.736 34.4022C194.284 34.166 194.754 33.7724 195.223 33.3788C195.615 32.9064 195.928 32.4341 196.163 31.883C196.398 31.332 196.476 30.7022 196.476 29.9937V29.9149C196.476 29.2851 196.398 28.6554 196.163 28.0256C195.928 27.4745 195.615 26.9234 195.223 26.4511C194.832 25.9788 194.284 25.6639 193.736 25.4277C193.187 25.1915 192.561 25.0341 191.856 25.0341C191.151 25.0341 190.525 25.1915 189.977 25.4277C189.429 25.6639 188.959 26.0575 188.567 26.4511C188.176 26.9234 187.862 27.3958 187.628 27.9468C187.393 28.4979 187.314 29.1277 187.314 29.8362V29.9149C187.314 30.5447 187.393 31.1745 187.628 31.8043C187.862 32.3554 188.176 32.9064 188.567 33.3788C188.959 33.8511 189.507 34.166 190.055 34.4022C190.525 34.6383 191.151 34.7958 191.856 34.7958Z" fill="white"/>
<path d="M86.6879 49.5958C86.1398 49.5958 85.6699 49.5171 85.2784 49.2809C84.8085 49.1234 84.4953 48.8086 84.1821 48.4937C83.8688 48.1788 83.6339 47.7852 83.399 47.3128C83.2424 46.8405 83.1641 46.3681 83.1641 45.8958C83.1641 45.4235 83.2424 44.8724 83.399 44.4788C83.5556 44.0064 83.7905 43.6128 84.1821 43.2979C84.4953 42.983 84.8869 42.6681 85.3567 42.5107C85.8266 42.3532 86.2964 42.1958 86.8446 42.1958C87.1578 42.1958 87.471 42.1958 87.706 42.2745C87.9409 42.3532 88.1758 42.432 88.4107 42.5107C88.6457 42.5894 88.8806 42.7469 89.0372 42.9043C89.1938 43.0618 89.4287 43.2192 89.5854 43.3766L89.0372 44.0064C88.724 43.6915 88.4107 43.4554 88.0192 43.2979C87.706 43.1405 87.2361 42.983 86.7663 42.983C86.3747 42.983 85.9832 43.0618 85.6699 43.2192C85.3567 43.3767 85.0435 43.6128 84.8085 43.849C84.5736 44.0852 84.3387 44.4001 84.2604 44.7937C84.1821 45.1873 84.0255 45.5022 84.0255 45.9745C84.0255 46.3681 84.1038 46.7618 84.2604 47.1554C84.417 47.549 84.5736 47.8639 84.8085 48.1C85.0435 48.3362 85.3567 48.5724 85.6699 48.7298C85.9832 48.8873 86.3747 48.966 86.7663 48.966C87.2361 48.966 87.706 48.8873 88.0192 48.7298C88.4107 48.5724 88.724 48.2575 89.0372 47.9426L89.5854 48.4937C89.4287 48.6511 89.1938 48.8873 89.0372 49.0447C88.8023 49.2022 88.6457 49.3596 88.4107 49.4383C88.1758 49.5171 87.9409 49.5958 87.6277 49.6745C87.3144 49.7532 87.0012 49.5958 86.6879 49.5958Z" fill="white"/>
<path d="M96.4762 49.5958C95.9281 49.5958 95.4582 49.5171 94.9884 49.2809C94.5185 49.0447 94.127 48.8086 93.8137 48.4937C93.5005 48.1788 93.2656 47.7852 93.109 47.3128C92.9523 46.8405 92.874 46.3681 92.874 45.8958C92.874 45.4235 92.9523 44.9511 93.109 44.4788C93.2656 44.0064 93.5005 43.6128 93.892 43.2979C94.2053 42.983 94.5968 42.6681 95.0667 42.5107C95.5365 42.3532 96.0064 42.1958 96.5545 42.1958C97.1027 42.1958 97.5725 42.2745 98.0424 42.5107C98.5122 42.7469 98.9038 42.983 99.217 43.2979C99.5303 43.6128 99.7652 44.0064 99.9218 44.4788C100.078 44.9511 100.157 45.4235 100.157 45.8958C100.157 46.3681 100.078 46.8405 99.9218 47.3128C99.7652 47.7852 99.5303 48.1788 99.1387 48.4937C98.8255 48.8086 98.4339 49.1235 97.9641 49.2809C97.5725 49.5171 97.0244 49.5958 96.4762 49.5958ZM96.5545 48.8873C96.9461 48.8873 97.3376 48.8086 97.6509 48.6511C97.9641 48.4937 98.2773 48.2575 98.5122 48.0213C98.7472 47.7852 98.9821 47.4703 99.0604 47.0766C99.217 46.683 99.2953 46.3681 99.2953 45.8958C99.2953 45.5022 99.217 45.1086 99.0604 44.7149C98.9038 44.3213 98.7472 44.0064 98.4339 43.7703C98.199 43.5341 97.8858 43.2979 97.5725 43.1405C97.2593 42.983 96.8678 42.9043 96.4762 42.9043C96.0847 42.9043 95.6931 42.983 95.3799 43.1405C95.0667 43.2979 94.7534 43.5341 94.5185 43.7703C94.2836 44.0064 94.0487 44.3213 93.9703 44.7149C93.8137 45.1086 93.7354 45.4235 93.7354 45.8958C93.7354 46.2894 93.8137 46.683 93.9703 47.0766C94.127 47.4703 94.2836 47.7852 94.5968 48.0213C94.8317 48.2575 95.145 48.4937 95.4582 48.6511C95.7714 48.8086 96.0847 48.8873 96.5545 48.8873Z" fill="white"/>
<path d="M104.15 42.2745H104.933L109.475 48.0213V42.2745H110.258V49.4384H109.632L105.012 43.5341V49.4384H104.229V42.2745H104.15Z" fill="white"/>
<path d="M116.915 49.5958C116.367 49.5958 115.819 49.5171 115.349 49.2809C114.879 49.1235 114.409 48.8086 114.018 48.4149L114.487 47.7852C114.879 48.1 115.271 48.4149 115.584 48.5724C115.975 48.7298 116.367 48.8086 116.915 48.8086C117.385 48.8086 117.776 48.7298 118.09 48.4937C118.403 48.2575 118.559 47.9426 118.559 47.6277C118.559 47.4703 118.559 47.3128 118.481 47.1554C118.403 46.9979 118.325 46.9192 118.168 46.7618C118.011 46.683 117.855 46.5256 117.62 46.4469C117.385 46.3681 117.072 46.2894 116.68 46.2107C116.289 46.132 115.897 46.0532 115.584 45.8958C115.271 45.8171 115.036 45.6596 114.801 45.5022C114.566 45.3447 114.487 45.1086 114.331 44.9511C114.174 44.7937 114.174 44.4788 114.174 44.1639C114.174 43.849 114.252 43.6128 114.331 43.3767C114.409 43.1405 114.644 42.9043 114.801 42.7469C114.957 42.5894 115.271 42.432 115.584 42.3532C115.897 42.2745 116.21 42.1958 116.523 42.1958C117.072 42.1958 117.541 42.2745 117.933 42.432C118.325 42.5894 118.716 42.8256 119.108 43.0618L118.638 43.6915C118.325 43.4554 117.933 43.2192 117.62 43.0618C117.307 42.9043 116.915 42.9043 116.602 42.9043C116.132 42.9043 115.74 42.983 115.505 43.2192C115.271 43.4554 115.114 43.6915 115.114 44.0852C115.114 44.2426 115.114 44.4001 115.192 44.5575C115.271 44.7149 115.349 44.7937 115.505 44.9511C115.662 45.1086 115.819 45.1873 116.132 45.266C116.367 45.3447 116.68 45.4235 117.072 45.5022C117.855 45.6596 118.481 45.8958 118.873 46.2107C119.264 46.5256 119.421 46.9192 119.421 47.4703C119.421 47.7852 119.343 48.0213 119.264 48.3362C119.186 48.6511 118.951 48.8086 118.794 48.966C118.638 49.1235 118.325 49.2809 118.011 49.3596C117.698 49.4383 117.228 49.5958 116.915 49.5958Z" fill="white"/>
<path d="M123.258 42.2745H124.041V49.4384H123.258V42.2745Z" fill="white"/>
<path d="M131.794 49.5958C131.245 49.5958 130.697 49.5171 130.306 49.2809C129.836 49.1235 129.444 48.8086 129.131 48.4937C128.818 48.1788 128.583 47.7852 128.426 47.3128C128.27 46.8405 128.191 46.3681 128.191 45.8958C128.191 45.4235 128.27 44.9511 128.426 44.4788C128.583 44.0064 128.818 43.6128 129.131 43.2979C129.444 42.983 129.836 42.6681 130.227 42.5107C130.619 42.3532 131.167 42.1958 131.715 42.1958C132.029 42.1958 132.263 42.1958 132.498 42.2745C132.733 42.3532 132.968 42.3532 133.203 42.432C133.438 42.5107 133.595 42.5894 133.83 42.7469C133.986 42.9043 134.221 42.983 134.378 43.1405L133.83 43.7703C133.673 43.6128 133.516 43.5341 133.438 43.4554C133.36 43.3767 133.125 43.2979 132.968 43.2192C132.812 43.1405 132.577 43.0618 132.42 43.0618C132.185 42.983 131.95 42.983 131.715 42.983C131.324 42.983 130.932 43.0618 130.619 43.2192C130.306 43.3767 129.993 43.6128 129.758 43.849C129.523 44.0852 129.366 44.4001 129.209 44.7937C129.053 45.1873 128.974 45.5022 128.974 45.8958C128.974 46.2894 129.053 46.7618 129.209 47.0766C129.366 47.3915 129.523 47.7852 129.758 48.0213C129.993 48.2575 130.306 48.4937 130.619 48.6511C130.932 48.8086 131.324 48.8873 131.794 48.8873C132.185 48.8873 132.577 48.8086 132.968 48.6511C133.36 48.4937 133.595 48.3362 133.908 48.1788V46.3681H131.715V45.6596H134.691V48.4937C134.378 48.8086 133.908 49.0447 133.438 49.2809C132.89 49.5171 132.342 49.5958 131.794 49.5958Z" fill="white"/>
<path d="M138.685 42.2745H139.468L144.01 48.0213V42.2745H144.793V49.4384H144.088L139.468 43.5341V49.4384H138.685V42.2745Z" fill="white"/>
<path d="M151.684 42.2745H152.468L155.757 49.5171H154.895L154.034 47.6277H150.118L149.257 49.5171H148.396L151.684 42.2745ZM153.642 46.8405L151.998 43.1405L150.353 46.8405H153.642Z" fill="white"/>
<path d="M161.238 43.0618H158.811V42.2745H164.449V43.0618H162.021V49.5171H161.238V43.0618Z" fill="white"/>
<path d="M170.87 42.2745H171.653L174.942 49.5171H174.081L173.219 47.6277H169.304L168.442 49.5171H167.581L170.87 42.2745ZM172.828 46.8405L171.183 43.1405L169.539 46.8405H172.828Z" fill="white"/>
<path d="M178.544 42.2745H181.598C182.068 42.2745 182.459 42.3533 182.773 42.432C183.086 42.5894 183.399 42.7469 183.634 42.983C183.791 43.1405 183.947 43.3767 184.026 43.6128C184.104 43.849 184.182 44.0852 184.182 44.4001C184.182 44.715 184.104 44.9511 184.026 45.1873C183.947 45.4235 183.791 45.6596 183.634 45.8171C183.477 45.9745 183.242 46.132 183.008 46.2107C182.773 46.2894 182.538 46.3682 182.224 46.4469L184.417 49.3596H183.399L181.363 46.6043H179.327V49.3596H178.544V42.2745ZM181.52 45.9745C181.755 45.9745 182.068 45.9745 182.224 45.8958C182.459 45.8171 182.616 45.7384 182.773 45.5809C182.929 45.4235 183.086 45.266 183.164 45.1086C183.242 44.9511 183.321 44.715 183.321 44.4788C183.321 44.0065 183.164 43.6916 182.851 43.4554C182.538 43.2192 182.068 43.0618 181.52 43.0618H179.327V45.9745H181.52Z" fill="white"/>
<path d="M188.254 42.2745H189.037V49.4384H188.254V42.2745Z" fill="white"/>
<path d="M196.007 42.2745H196.79L200.079 49.5171H199.217L198.356 47.6277H194.441L193.579 49.5171H192.718L196.007 42.2745ZM198.043 46.8405L196.398 43.1405L194.754 46.8405H198.043Z" fill="white"/>
<path d="M36.805 0C16.4448 0 0 16.5319 0 37C0 57.4681 16.4448 74 36.805 74C57.1652 74 73.61 57.4681 73.61 37C73.61 16.5319 57.0869 0 36.805 0ZM36.805 71.4021C17.9327 71.4021 2.58418 55.9723 2.58418 37C2.58418 18.0277 17.9327 2.59787 36.805 2.59787C55.6774 2.59787 71.0258 18.0277 71.0258 37C71.0258 55.9723 55.6774 71.4021 36.805 71.4021ZM36.805 3.46383C18.4025 3.46383 3.44558 18.5 3.44558 37C3.44558 55.5 18.4025 70.5362 36.805 70.5362C55.2075 70.5362 70.1644 55.5 70.1644 37C70.1644 18.5 55.2075 3.46383 36.805 3.46383ZM35.0822 34.9532C29.9922 34.9532 29.6789 39.834 29.6789 39.834L29.2874 39.9915L29.6789 39.834V55.0277H34.4558V56.2872H21.8481V42.983C21.8481 32.6702 35.0822 33.6936 35.0822 33.6936V34.9532ZM35.0822 19.366H29.6006C29.6006 19.366 29.6006 27.6319 29.6006 32.2766C29.6006 32.3553 22.8661 33.7723 21.7698 38.417C21.7698 38.4957 21.7698 17.7915 21.7698 17.7915H35.0039V19.366H35.0822ZM51.7619 56.2085H43.5395V41.566C43.5395 34.6383 36.8833 35.1106 36.8833 35.1106V33.6936C36.8833 33.6936 44.3226 33.6936 44.3226 26.8447C44.3226 18.9723 36.8833 19.366 36.8833 19.366V17.7915C46.7502 17.7915 51.527 19.2872 51.527 26.3723C51.527 33.4574 45.4189 34.5596 45.4189 34.5596C51.6836 35.6617 51.7619 41.9596 51.7619 41.9596V56.2085Z" fill="white"/>
</g>
<defs>
<clipPath id="clip0_5_411">
<rect width="200" height="74" fill="white"/>
</clipPath>
</defs>
</svg>
