<svg width="80" height="80" viewBox="0 0 80 80" fill="none" xmlns="http://www.w3.org/2000/svg">
<path d="M40 80C62.0914 80 80 62.0914 80 40C80 17.9086 62.0914 0 40 0C17.9086 0 0 17.9086 0 40C0 62.0914 17.9086 80 40 80Z" fill="#19513C"/>
<path fill-rule="evenodd" clip-rule="evenodd" d="M34.652 48L36.232 50.214C35.528 50.694 34.936 51.302 34.484 52H27C20.926 52 16 47.074 16 41C16 35.596 19.902 31.11 25.042 30.184C25.466 22.282 31.988 16 40 16C48.012 16 54.534 22.282 54.958 30.182C60.098 31.108 64 35.594 64 40.998C64 42.244 63.782 43.436 63.4 44.554C63.078 43.976 62.714 43.382 62.276 42.768C61.654 41.894 60.892 40.974 59.954 40.206C59.492 34.926 54.462 33.472 51.134 33.56C51.782 25.594 46.906 20 40 20C33.282 20 28.532 25.124 28.866 33.56C24.958 33.334 20 35.406 20 41C20 44.86 23.14 48 27 48H34.652ZM33.586 35.902C34.262 35.42 35.024 35.196 35.774 35.196C37.37 35.196 38.904 36.21 39.41 37.902C38.762 37.404 38.006 37.162 37.242 37.162C36.47 37.162 35.69 37.412 35.01 37.896C33.656 38.86 33.058 40.502 33.578 42.06C31.478 40.554 31.468 37.414 33.586 35.902ZM40.4249 57.669L40.4249 57.669C42.4981 58.3388 47.3191 59.8965 52.83 64L64 56.034C62.5497 53.9997 62.0253 52.2714 61.5017 50.5457C60.9798 48.8254 60.4587 47.1077 59.022 45.092C57.57 43.058 56.578 42.504 55.332 42.504C54.892 42.504 54.42 42.574 53.884 42.672L54.898 44.092C55.338 44.708 54.794 45.354 54.228 45.354C54.006 45.354 53.778 45.254 53.606 45.012L52.702 43.744C52.404 43.324 51.988 43.182 51.51 43.182C51.0203 43.182 50.4672 43.3311 49.91 43.4812C49.682 43.5427 49.4533 43.6043 49.228 43.656L50.458 45.38C50.894 45.994 50.352 46.642 49.786 46.642C49.564 46.642 49.338 46.542 49.166 46.3L48.1 44.806C47.804 44.39 47.394 44.246 46.928 44.246C46.4166 44.246 45.8351 44.4185 45.2545 44.5908L45.2545 44.5908L45.2544 44.5908C45.0199 44.6604 44.7856 44.7299 44.556 44.788L45.856 46.612C46.296 47.228 45.752 47.874 45.184 47.874C44.962 47.874 44.734 47.774 44.562 47.534L39.286 40.148C38.824 39.498 38.202 39.228 37.59 39.228C36.042 39.228 34.542 40.964 35.756 42.668L43.546 53.59C42.71 53.282 41.242 53 40.282 53C37.322 53.002 36.182 56.25 39.914 57.502C40.0588 57.5507 40.2296 57.6059 40.4249 57.669Z" fill="white"/>
</svg>
