<svg width="32" height="32" viewBox="0 0 32 32" fill="none" xmlns="http://www.w3.org/2000/svg">
<path fill-rule="evenodd" clip-rule="evenodd" d="M16 0C7.164 0 0 7.164 0 16C0 24.836 7.164 32 16 32C24.836 32 32 24.836 32 16C32 7.164 24.836 0 16 0ZM15.9993 2.6665C23.3513 2.6665 29.3327 8.64784 29.3327 15.9998C29.3327 23.3518 23.3513 29.3332 15.9993 29.3332C8.64735 29.3332 2.66602 23.3518 2.66602 15.9998C2.66602 8.64784 8.64735 2.6665 15.9993 2.6665ZM22.7807 12.2214C23.4447 12.1414 24.078 11.9654 24.666 11.7041C24.226 12.3627 23.67 12.9414 23.0273 13.4027C23.2353 18.0201 19.7927 23.1681 13.6967 23.1681C11.8433 23.1681 10.1193 22.6254 8.66602 21.6934C10.4087 21.8987 12.146 21.4147 13.5287 20.3321C12.094 20.3054 10.8793 19.3574 10.462 18.0534C10.9767 18.1521 11.4833 18.1227 11.9447 17.9974C10.366 17.6801 9.27535 16.2574 9.31135 14.7374C9.75402 14.9827 10.2593 15.1307 10.7967 15.1481C9.33535 14.1707 8.92068 12.2401 9.78068 10.7654C11.3993 12.7507 13.8193 14.0574 16.546 14.1947C16.0673 12.1414 17.6247 10.1641 19.7447 10.1641C20.6873 10.1641 21.542 10.5627 22.1393 11.2014C22.8873 11.0547 23.59 10.7814 24.2247 10.4054C23.978 11.1721 23.4593 11.8147 22.7807 12.2214Z" fill="white"/>
</svg>
